<mxfile host="app.diagrams.net" modified="2022-09-15T11:30:28.548Z" agent="5.0 (Windows NT 10.0; Win64; x64) AppleWebKit/537.36 (KHTML, like Gecko) Chrome/105.0.0.0 Safari/537.36" etag="feqq45S6zNKEBQozueFx" version="20.3.0" type="github">
  <diagram id="C5RBs43oDa-KdzZeNtuy" name="Page-1">
    <mxGraphModel dx="942" dy="606" grid="1" gridSize="10" guides="1" tooltips="1" connect="1" arrows="1" fold="1" page="1" pageScale="1" pageWidth="827" pageHeight="1169" math="0" shadow="0">
      <root>
        <mxCell id="WIyWlLk6GJQsqaUBKTNV-0" />
        <mxCell id="WIyWlLk6GJQsqaUBKTNV-1" parent="WIyWlLk6GJQsqaUBKTNV-0" />
        <mxCell id="zkfFHV4jXpPFQw0GAbJ--0" value="Store&#xa;" style="swimlane;fontStyle=2;align=center;verticalAlign=top;childLayout=stackLayout;horizontal=1;startSize=26;horizontalStack=0;resizeParent=1;resizeLast=0;collapsible=1;marginBottom=0;rounded=0;shadow=0;strokeWidth=1;" parent="WIyWlLk6GJQsqaUBKTNV-1" vertex="1">
          <mxGeometry x="210" y="90" width="160" height="150" as="geometry">
            <mxRectangle x="230" y="140" width="160" height="26" as="alternateBounds" />
          </mxGeometry>
        </mxCell>
        <mxCell id="zkfFHV4jXpPFQw0GAbJ--1" value="+storeName: string" style="text;align=left;verticalAlign=top;spacingLeft=4;spacingRight=4;overflow=hidden;rotatable=0;points=[[0,0.5],[1,0.5]];portConstraint=eastwest;" parent="zkfFHV4jXpPFQw0GAbJ--0" vertex="1">
          <mxGeometry y="26" width="160" height="14" as="geometry" />
        </mxCell>
        <mxCell id="I56DdLkFMOWvykfRAzJl-30" value="&amp;nbsp;+inventory: Inventory" style="text;html=1;align=left;verticalAlign=middle;resizable=0;points=[];autosize=1;strokeColor=none;fillColor=none;" parent="zkfFHV4jXpPFQw0GAbJ--0" vertex="1">
          <mxGeometry y="40" width="160" height="30" as="geometry" />
        </mxCell>
        <mxCell id="zkfFHV4jXpPFQw0GAbJ--4" value="" style="line;html=1;strokeWidth=1;align=left;verticalAlign=middle;spacingTop=-1;spacingLeft=3;spacingRight=3;rotatable=0;labelPosition=right;points=[];portConstraint=eastwest;" parent="zkfFHV4jXpPFQw0GAbJ--0" vertex="1">
          <mxGeometry y="70" width="160" height="8" as="geometry" />
        </mxCell>
        <mxCell id="zkfFHV4jXpPFQw0GAbJ--5" value="+Store(): None&#xa;+welcomeToStore(): None&#xa;+printOutProducts(): None" style="text;align=left;verticalAlign=top;spacingLeft=4;spacingRight=4;overflow=hidden;rotatable=0;points=[[0,0.5],[1,0.5]];portConstraint=eastwest;" parent="zkfFHV4jXpPFQw0GAbJ--0" vertex="1">
          <mxGeometry y="78" width="160" height="42" as="geometry" />
        </mxCell>
        <mxCell id="I56DdLkFMOWvykfRAzJl-34" value="+addAProduct(): None" style="text;align=left;verticalAlign=top;spacingLeft=4;spacingRight=4;overflow=hidden;rotatable=0;points=[[0,0.5],[1,0.5]];portConstraint=eastwest;" parent="zkfFHV4jXpPFQw0GAbJ--0" vertex="1">
          <mxGeometry y="120" width="160" height="20" as="geometry" />
        </mxCell>
        <mxCell id="I56DdLkFMOWvykfRAzJl-0" value="Inventory&#xa;" style="swimlane;fontStyle=2;align=center;verticalAlign=top;childLayout=stackLayout;horizontal=1;startSize=26;horizontalStack=0;resizeParent=1;resizeLast=0;collapsible=1;marginBottom=0;rounded=0;shadow=0;strokeWidth=1;" parent="WIyWlLk6GJQsqaUBKTNV-1" vertex="1">
          <mxGeometry x="210" y="320" width="170" height="150" as="geometry">
            <mxRectangle x="230" y="140" width="160" height="26" as="alternateBounds" />
          </mxGeometry>
        </mxCell>
        <mxCell id="I56DdLkFMOWvykfRAzJl-1" value="+listOfProducts: list" style="text;align=left;verticalAlign=top;spacingLeft=4;spacingRight=4;overflow=hidden;rotatable=0;points=[[0,0.5],[1,0.5]];portConstraint=eastwest;" parent="I56DdLkFMOWvykfRAzJl-0" vertex="1">
          <mxGeometry y="26" width="170" height="26" as="geometry" />
        </mxCell>
        <mxCell id="I56DdLkFMOWvykfRAzJl-4" value="" style="line;html=1;strokeWidth=1;align=left;verticalAlign=middle;spacingTop=-1;spacingLeft=3;spacingRight=3;rotatable=0;labelPosition=right;points=[];portConstraint=eastwest;" parent="I56DdLkFMOWvykfRAzJl-0" vertex="1">
          <mxGeometry y="52" width="170" height="8" as="geometry" />
        </mxCell>
        <mxCell id="I56DdLkFMOWvykfRAzJl-5" value="+Inventory(): None&#xa;" style="text;align=left;verticalAlign=top;spacingLeft=4;spacingRight=4;overflow=hidden;rotatable=0;points=[[0,0.5],[1,0.5]];portConstraint=eastwest;" parent="I56DdLkFMOWvykfRAzJl-0" vertex="1">
          <mxGeometry y="60" width="170" height="20" as="geometry" />
        </mxCell>
        <mxCell id="I56DdLkFMOWvykfRAzJl-27" value="+addItemToInventory(&#xa;productNumber, &#xa;productName, price): None&#xa;+__str__(): string&#xa;" style="text;align=left;verticalAlign=top;spacingLeft=4;spacingRight=4;overflow=hidden;rotatable=0;points=[[0,0.5],[1,0.5]];portConstraint=eastwest;" parent="I56DdLkFMOWvykfRAzJl-0" vertex="1">
          <mxGeometry y="80" width="170" height="64" as="geometry" />
        </mxCell>
        <mxCell id="I56DdLkFMOWvykfRAzJl-6" value="Product" style="swimlane;fontStyle=2;align=center;verticalAlign=top;childLayout=stackLayout;horizontal=1;startSize=26;horizontalStack=0;resizeParent=1;resizeLast=0;collapsible=1;marginBottom=0;rounded=0;shadow=0;strokeWidth=1;" parent="WIyWlLk6GJQsqaUBKTNV-1" vertex="1">
          <mxGeometry x="215" y="550" width="160" height="180" as="geometry">
            <mxRectangle x="230" y="140" width="160" height="26" as="alternateBounds" />
          </mxGeometry>
        </mxCell>
        <mxCell id="I56DdLkFMOWvykfRAzJl-7" value="+productNumber: int&#xa;" style="text;align=left;verticalAlign=top;spacingLeft=4;spacingRight=4;overflow=hidden;rotatable=0;points=[[0,0.5],[1,0.5]];portConstraint=eastwest;" parent="I56DdLkFMOWvykfRAzJl-6" vertex="1">
          <mxGeometry y="26" width="160" height="26" as="geometry" />
        </mxCell>
        <mxCell id="I56DdLkFMOWvykfRAzJl-8" value="+productName: string" style="text;align=left;verticalAlign=top;spacingLeft=4;spacingRight=4;overflow=hidden;rotatable=0;points=[[0,0.5],[1,0.5]];portConstraint=eastwest;rounded=0;shadow=0;html=0;" parent="I56DdLkFMOWvykfRAzJl-6" vertex="1">
          <mxGeometry y="52" width="160" height="26" as="geometry" />
        </mxCell>
        <mxCell id="I56DdLkFMOWvykfRAzJl-9" value="+price: int" style="text;align=left;verticalAlign=top;spacingLeft=4;spacingRight=4;overflow=hidden;rotatable=0;points=[[0,0.5],[1,0.5]];portConstraint=eastwest;rounded=0;shadow=0;html=0;" parent="I56DdLkFMOWvykfRAzJl-6" vertex="1">
          <mxGeometry y="78" width="160" height="26" as="geometry" />
        </mxCell>
        <mxCell id="I56DdLkFMOWvykfRAzJl-10" value="" style="line;html=1;strokeWidth=1;align=left;verticalAlign=middle;spacingTop=-1;spacingLeft=3;spacingRight=3;rotatable=0;labelPosition=right;points=[];portConstraint=eastwest;" parent="I56DdLkFMOWvykfRAzJl-6" vertex="1">
          <mxGeometry y="104" width="160" height="8" as="geometry" />
        </mxCell>
        <mxCell id="I56DdLkFMOWvykfRAzJl-11" value="+Product(productNumber,&#xa;Â productName, price): None&#xa;+__str__(): string" style="text;align=left;verticalAlign=top;spacingLeft=4;spacingRight=4;overflow=hidden;rotatable=0;points=[[0,0.5],[1,0.5]];portConstraint=eastwest;" parent="I56DdLkFMOWvykfRAzJl-6" vertex="1">
          <mxGeometry y="112" width="160" height="68" as="geometry" />
        </mxCell>
        <mxCell id="I56DdLkFMOWvykfRAzJl-15" value="" style="endArrow=classic;html=1;rounded=0;exitX=0.459;exitY=1.025;exitDx=0;exitDy=0;exitPerimeter=0;startArrow=none;" parent="WIyWlLk6GJQsqaUBKTNV-1" source="I56DdLkFMOWvykfRAzJl-16" edge="1">
          <mxGeometry width="50" height="50" relative="1" as="geometry">
            <mxPoint x="390" y="440" as="sourcePoint" />
            <mxPoint x="285" y="240" as="targetPoint" />
          </mxGeometry>
        </mxCell>
        <mxCell id="I56DdLkFMOWvykfRAzJl-16" value="" style="rhombus;whiteSpace=wrap;html=1;fillColor=#000000;" parent="WIyWlLk6GJQsqaUBKTNV-1" vertex="1">
          <mxGeometry x="280" y="240" width="10" height="20" as="geometry" />
        </mxCell>
        <mxCell id="I56DdLkFMOWvykfRAzJl-17" value="" style="endArrow=none;html=1;rounded=0;exitX=0.447;exitY=-0.02;exitDx=0;exitDy=0;exitPerimeter=0;" parent="WIyWlLk6GJQsqaUBKTNV-1" source="I56DdLkFMOWvykfRAzJl-0" target="I56DdLkFMOWvykfRAzJl-16" edge="1">
          <mxGeometry width="50" height="50" relative="1" as="geometry">
            <mxPoint x="283.44000000000005" y="241.5" as="sourcePoint" />
            <mxPoint x="286.93125423728816" y="320" as="targetPoint" />
            <Array as="points" />
          </mxGeometry>
        </mxCell>
        <mxCell id="I56DdLkFMOWvykfRAzJl-33" value="0 *" style="text;html=1;align=center;verticalAlign=middle;resizable=0;points=[];autosize=1;strokeColor=none;fillColor=none;" parent="WIyWlLk6GJQsqaUBKTNV-1" vertex="1">
          <mxGeometry x="305" y="470" width="40" height="30" as="geometry" />
        </mxCell>
        <mxCell id="I56DdLkFMOWvykfRAzJl-37" value="1" style="text;html=1;align=center;verticalAlign=middle;resizable=0;points=[];autosize=1;strokeColor=none;fillColor=none;" parent="WIyWlLk6GJQsqaUBKTNV-1" vertex="1">
          <mxGeometry x="305" y="240" width="30" height="30" as="geometry" />
        </mxCell>
        <mxCell id="eZ7BVjOAPcaA3N2zjfHH-13" value="" style="endArrow=none;html=1;rounded=0;exitX=0.5;exitY=0;exitDx=0;exitDy=0;entryX=0.5;entryY=1;entryDx=0;entryDy=0;startArrow=none;" edge="1" parent="WIyWlLk6GJQsqaUBKTNV-1" source="eZ7BVjOAPcaA3N2zjfHH-18" target="I56DdLkFMOWvykfRAzJl-0">
          <mxGeometry width="50" height="50" relative="1" as="geometry">
            <mxPoint x="540" y="350" as="sourcePoint" />
            <mxPoint x="590" y="300" as="targetPoint" />
          </mxGeometry>
        </mxCell>
        <mxCell id="eZ7BVjOAPcaA3N2zjfHH-18" value="" style="rhombus;whiteSpace=wrap;html=1;fillColor=#000000;" vertex="1" parent="WIyWlLk6GJQsqaUBKTNV-1">
          <mxGeometry x="290" y="470" width="10" height="30" as="geometry" />
        </mxCell>
        <mxCell id="eZ7BVjOAPcaA3N2zjfHH-19" value="" style="endArrow=none;html=1;rounded=0;exitX=0.5;exitY=0;exitDx=0;exitDy=0;entryX=0.5;entryY=1;entryDx=0;entryDy=0;" edge="1" parent="WIyWlLk6GJQsqaUBKTNV-1" source="I56DdLkFMOWvykfRAzJl-6" target="eZ7BVjOAPcaA3N2zjfHH-18">
          <mxGeometry width="50" height="50" relative="1" as="geometry">
            <mxPoint x="295" y="550" as="sourcePoint" />
            <mxPoint x="295" y="470" as="targetPoint" />
          </mxGeometry>
        </mxCell>
      </root>
    </mxGraphModel>
  </diagram>
</mxfile>
